<mxfile host="app.diagrams.net" modified="2020-12-08T22:54:55.201Z" agent="5.0 (Macintosh; Intel Mac OS X 10_15_7) AppleWebKit/537.36 (KHTML, like Gecko) Chrome/86.0.4240.193 Safari/537.36" etag="3qVgw6T7VBLJt5q5HA8w" version="13.10.0" type="github">
  <diagram id="eYAGkdXjcYueEW1quFfb" name="Page-1">
    <mxGraphModel dx="1196" dy="747" grid="1" gridSize="10" guides="1" tooltips="1" connect="1" arrows="1" fold="1" page="1" pageScale="1" pageWidth="1100" pageHeight="850" math="0" shadow="0">
      <root>
        <mxCell id="0" />
        <mxCell id="1" parent="0" />
        <mxCell id="i89bTVHoX--s6SYIX36o-20" value="BACKGROUND&lt;br&gt;IMAGE" style="rounded=1;whiteSpace=wrap;html=1;" vertex="1" parent="1">
          <mxGeometry x="20" y="20" width="1060" height="810" as="geometry" />
        </mxCell>
        <mxCell id="i89bTVHoX--s6SYIX36o-1" value="Photo" style="ellipse;whiteSpace=wrap;html=1;" vertex="1" parent="1">
          <mxGeometry x="40" y="175" width="440" height="290" as="geometry" />
        </mxCell>
        <mxCell id="i89bTVHoX--s6SYIX36o-2" value="&lt;font size=&quot;3&quot;&gt;&lt;b&gt;CANDICE SAMBURY&lt;/b&gt;&lt;/font&gt;" style="rounded=1;whiteSpace=wrap;html=1;" vertex="1" parent="1">
          <mxGeometry x="40" y="80" width="440" height="40" as="geometry" />
        </mxCell>
        <mxCell id="i89bTVHoX--s6SYIX36o-4" value="" style="rounded=1;whiteSpace=wrap;html=1;" vertex="1" parent="1">
          <mxGeometry x="600" y="80" width="460" height="480" as="geometry" />
        </mxCell>
        <mxCell id="i89bTVHoX--s6SYIX36o-5" value="" style="rounded=1;whiteSpace=wrap;html=1;" vertex="1" parent="1">
          <mxGeometry x="40" y="640" width="1020" height="80" as="geometry" />
        </mxCell>
        <mxCell id="i89bTVHoX--s6SYIX36o-6" value="About Me" style="rounded=1;whiteSpace=wrap;html=1;" vertex="1" parent="1">
          <mxGeometry x="90" y="660" width="120" height="40" as="geometry" />
        </mxCell>
        <mxCell id="i89bTVHoX--s6SYIX36o-7" value="Adventures" style="rounded=1;whiteSpace=wrap;html=1;" vertex="1" parent="1">
          <mxGeometry x="490" y="660" width="120" height="40" as="geometry" />
        </mxCell>
        <mxCell id="i89bTVHoX--s6SYIX36o-8" value="Comments" style="rounded=1;whiteSpace=wrap;html=1;" vertex="1" parent="1">
          <mxGeometry x="690" y="660" width="120" height="40" as="geometry" />
        </mxCell>
        <mxCell id="i89bTVHoX--s6SYIX36o-9" value="Portfolio" style="rounded=1;whiteSpace=wrap;html=1;" vertex="1" parent="1">
          <mxGeometry x="290" y="660" width="120" height="40" as="geometry" />
        </mxCell>
        <mxCell id="i89bTVHoX--s6SYIX36o-10" value="Contact Me" style="rounded=1;whiteSpace=wrap;html=1;" vertex="1" parent="1">
          <mxGeometry x="890" y="660" width="120" height="40" as="geometry" />
        </mxCell>
        <mxCell id="i89bTVHoX--s6SYIX36o-11" value="&lt;font size=&quot;3&quot;&gt;&lt;b&gt;CANDILAND CAN...&lt;/b&gt;&lt;/font&gt;" style="rounded=1;whiteSpace=wrap;html=1;" vertex="1" parent="1">
          <mxGeometry x="650" y="110" width="370" height="60" as="geometry" />
        </mxCell>
        <mxCell id="i89bTVHoX--s6SYIX36o-12" value="&lt;font size=&quot;3&quot;&gt;&lt;b&gt;CAN...HELP&lt;/b&gt;&lt;/font&gt;" style="rounded=1;whiteSpace=wrap;html=1;" vertex="1" parent="1">
          <mxGeometry x="650" y="290" width="370" height="60" as="geometry" />
        </mxCell>
        <mxCell id="i89bTVHoX--s6SYIX36o-13" value="&lt;font size=&quot;3&quot;&gt;&lt;b&gt;CAN...TEACH&lt;/b&gt;&lt;/font&gt;" style="rounded=1;whiteSpace=wrap;html=1;" vertex="1" parent="1">
          <mxGeometry x="650" y="380" width="370" height="60" as="geometry" />
        </mxCell>
        <mxCell id="i89bTVHoX--s6SYIX36o-14" value="&lt;font size=&quot;3&quot;&gt;&lt;b&gt;CAN...LEARN&lt;/b&gt;&lt;/font&gt;" style="rounded=1;whiteSpace=wrap;html=1;" vertex="1" parent="1">
          <mxGeometry x="645" y="470" width="370" height="60" as="geometry" />
        </mxCell>
        <mxCell id="i89bTVHoX--s6SYIX36o-16" value="&lt;font size=&quot;3&quot;&gt;&lt;b&gt;CAN...CODE&lt;/b&gt;&lt;/font&gt;" style="rounded=1;whiteSpace=wrap;html=1;" vertex="1" parent="1">
          <mxGeometry x="650" y="200" width="370" height="60" as="geometry" />
        </mxCell>
        <mxCell id="i89bTVHoX--s6SYIX36o-22" value="&lt;font size=&quot;3&quot;&gt;&lt;b&gt;SO NICE TO MEET YOU!&lt;/b&gt;&lt;/font&gt;" style="rounded=1;whiteSpace=wrap;html=1;" vertex="1" parent="1">
          <mxGeometry x="50" y="520" width="440" height="40" as="geometry" />
        </mxCell>
        <mxCell id="i89bTVHoX--s6SYIX36o-24" value="" style="edgeStyle=orthogonalEdgeStyle;rounded=0;orthogonalLoop=1;jettySize=auto;html=1;" edge="1" parent="1" source="i89bTVHoX--s6SYIX36o-23" target="i89bTVHoX--s6SYIX36o-2">
          <mxGeometry relative="1" as="geometry" />
        </mxCell>
        <mxCell id="i89bTVHoX--s6SYIX36o-23" value="HOME" style="rounded=1;whiteSpace=wrap;html=1;" vertex="1" parent="1">
          <mxGeometry x="210" y="40" width="90" height="20" as="geometry" />
        </mxCell>
        <mxCell id="i89bTVHoX--s6SYIX36o-25" value="CONTACT ME" style="rounded=1;whiteSpace=wrap;html=1;" vertex="1" parent="1">
          <mxGeometry x="790" y="40" width="90" height="20" as="geometry" />
        </mxCell>
      </root>
    </mxGraphModel>
  </diagram>
</mxfile>
